<svg xmlns="http://www.w3.org/2000/svg" xmlns:xlink="http://www.w3.org/1999/xlink" viewBox="0 0 26.6 16.6"><defs><style>.cls-1,.cls-3{fill:none;}.cls-2{clip-path:url(#clip-path);}.cls-3{stroke:#2f2b2c;stroke-linecap:round;stroke-linejoin:round;stroke-width:0.6px;}</style><clipPath id="clip-path" transform="translate(-0.7 -0.7)"><rect class="cls-1" width="28" height="18"/></clipPath></defs><title>Asset 7</title><g id="Layer_2" data-name="Layer 2"><g id="Layer_1-2" data-name="Layer 1"><g class="cls-2"><path class="cls-3" d="M8.91,15.26C7.61,14.71,6.16,14,6,13.59v-.45a2.86,2.86,0,0,0,.61-1.22.78.78,0,0,0,.13-1.06v-1A1.57,1.57,0,0,0,5.05,8.11,1.58,1.58,0,0,0,3.32,9.86v1a.78.78,0,0,0,.13,1.06,2.86,2.86,0,0,0,.61,1.22v.45c-.12.43-1.57,1.12-2.88,1.67a.32.32,0,0,0-.18.3v1.12a.3.3,0,0,0,.29.32H8.81a.3.3,0,0,0,.29-.32V15.56A.31.31,0,0,0,8.91,15.26Z" transform="translate(-0.7 -0.7)"/><path class="cls-3" d="M17.91,15.26c-1.3-.55-2.75-1.24-2.87-1.67v-.45a2.86,2.86,0,0,0,.61-1.22.78.78,0,0,0,.13-1.06v-1a1.57,1.57,0,0,0-1.73-1.75,1.58,1.58,0,0,0-1.73,1.75v1a.78.78,0,0,0,.13,1.06,2.86,2.86,0,0,0,.61,1.22v.45c-.12.43-1.57,1.12-2.88,1.67a.32.32,0,0,0-.18.3v1.12a.3.3,0,0,0,.29.32h7.52a.3.3,0,0,0,.29-.32V15.56A.31.31,0,0,0,17.91,15.26Z" transform="translate(-0.7 -0.7)"/><path class="cls-3" d="M13.2,8.11C12,7.56,10.64,6.88,10.52,6.45V6a2.9,2.9,0,0,0,.57-1.21.81.81,0,0,0,.12-1v-1c0-1-.49-1.74-1.61-1.74A1.53,1.53,0,0,0,8,2.74v1a.81.81,0,0,0,.12,1A2.9,2.9,0,0,0,8.68,6v.45c-.12.43-1.75,1.11-3,1.66" transform="translate(-0.7 -0.7)"/><path class="cls-3" d="M22.2,8.11C21,7.56,19.64,6.88,19.52,6.45V6a2.9,2.9,0,0,0,.57-1.21.81.81,0,0,0,.12-1v-1c0-1-.49-1.74-1.61-1.74A1.53,1.53,0,0,0,17,2.74v1a.81.81,0,0,0,.12,1A2.78,2.78,0,0,0,17.68,6v.45c-.12.43-1.7,1.11-2.91,1.66" transform="translate(-0.7 -0.7)"/><path class="cls-3" d="M26.82,15.26c-1.31-.55-2.76-1.24-2.88-1.67v-.45a2.86,2.86,0,0,0,.61-1.22.78.78,0,0,0,.13-1.06v-1A1.57,1.57,0,0,0,23,8.11a1.58,1.58,0,0,0-1.73,1.75v1a.78.78,0,0,0,.13,1.06A2.86,2.86,0,0,0,22,13.14v.45c-.12.43-1.57,1.12-2.88,1.67a.32.32,0,0,0-.18.3v1.12a.3.3,0,0,0,.29.32h7.52a.3.3,0,0,0,.29-.32V15.56A.32.32,0,0,0,26.82,15.26Z" transform="translate(-0.7 -0.7)"/></g></g></g></svg>