<svg xmlns="http://www.w3.org/2000/svg" xmlns:xlink="http://www.w3.org/1999/xlink" viewBox="0 0 14.43 16.6"><defs><style>.cls-1,.cls-3{fill:none;}.cls-2{clip-path:url(#clip-path);}.cls-3{stroke:#2f2b2c;stroke-linecap:round;stroke-linejoin:round;stroke-width:0.6px;}</style><clipPath id="clip-path" transform="translate(-2.07 -1)"><rect class="cls-1" width="19" height="19"/></clipPath></defs><title>Asset 3</title><g id="Layer_2" data-name="Layer 2"><g id="Layer_1-2" data-name="Layer 1"><g class="cls-2"><path class="cls-3" d="M12.93,11a.39.39,0,0,0-.51-.07l-1.24.93-.06,0C10,12.26,6.59,7.67,7.42,7l1.25-.94a.36.36,0,0,0,.06-.51L5.55,1.44a.4.4,0,0,0-.24-.14A.41.41,0,0,0,5,1.37C3,2.91-.13,4.33,5.84,12S14,17.29,16.07,15.54a.36.36,0,0,0,.06-.49Z" transform="translate(-2.07 -1)"/></g></g></g></svg>