<svg xmlns="http://www.w3.org/2000/svg" xmlns:xlink="http://www.w3.org/1999/xlink" viewBox="0 0 17.6 13.6"><defs><style>.cls-1,.cls-3{fill:none;}.cls-2{clip-path:url(#clip-path);}.cls-3{stroke:#2f2b2c;stroke-linecap:round;stroke-linejoin:round;stroke-width:0.6px;}</style><clipPath id="clip-path" transform="translate(-0.7 -0.7)"><rect class="cls-1" width="19" height="15"/></clipPath></defs><title>Asset 6</title><g id="Layer_2" data-name="Layer 2"><g id="Layer_1-2" data-name="Layer 1"><g class="cls-2"><path class="cls-3" d="M4.46,10.73h-3a.41.41,0,0,1-.44-.4V4.69a.43.43,0,0,1,.44-.42H4.38L8.62,1.21c1.05-.66,1.11.45,1.11.45V13.35s-.06,1.1-1.11.44Z" transform="translate(-0.7 -0.7)"/><path class="cls-3" d="M13.41,10.86a4.81,4.81,0,0,0,0-6.72" transform="translate(-0.7 -0.7)"/><path class="cls-3" d="M15.7,12.21A6.55,6.55,0,0,0,18,7.28a6.57,6.57,0,0,0-2.3-4.94" transform="translate(-0.7 -0.7)"/></g></g></g></svg>