<svg style="position: absolute; width: 0; height: 0; overflow: hidden;" version="1.1" xmlns="http://www.w3.org/2000/svg" xmlns:xlink="http://www.w3.org/1999/xlink">
<defs>
<symbol id="icon-whiteboard" viewBox="0 0 35 32">
<title>whiteboard</title>
<path d="M34.246 2.807h-10.985v-2.246c0-0.31-0.251-0.561-0.561-0.561v0c-0.006-0-0.012-0-0.019-0-0.3 0-0.543 0.243-0.543 0.543 0 0.007 0 0.013 0 0.020l-0-0.001v2.246h-9.469v-2.246c0-0.006 0-0.012 0-0.019 0-0.3-0.243-0.543-0.543-0.543-0.007 0-0.013 0-0.020 0l0.001-0c-0.31 0-0.561 0.251-0.561 0.561v0 2.246h-10.985c-0.006-0-0.012-0-0.019-0-0.3 0-0.543 0.243-0.543 0.543 0 0.007 0 0.013 0 0.020l-0-0.001v22.456c-0 0.006-0 0.012-0 0.019 0 0.3 0.243 0.543 0.543 0.543 0.007 0 0.013-0 0.020-0l-0.001 0h16.281v4.491h-6.924c-0.31 0-0.561 0.251-0.561 0.561s0.251 0.561 0.561 0.561v0h14.971c0.31 0 0.561-0.251 0.561-0.561s-0.251-0.561-0.561-0.561v0h-6.924v-4.491h16.281c0.006 0 0.012 0 0.019 0 0.3 0 0.543-0.243 0.543-0.543 0-0.007-0-0.013-0-0.020l0 0.001v-22.456c0-0.006 0-0.012 0-0.019 0-0.3-0.243-0.543-0.543-0.543-0.007 0-0.013 0-0.020 0l0.001-0zM33.684 25.263h-32.561v-21.333h32.561z"></path>
</symbol>
<symbol id="icon-dropdown_caret" viewBox="0 0 53 32">
<title>dropdown_caret</title>
<path d="M51.99 1.102c-0.687-0.683-1.634-1.105-2.679-1.105s-1.992 0.422-2.68 1.105l0-0-20.029 20.143-20.105-20.143c-0.691-0.691-1.645-1.118-2.698-1.118-2.108 0-3.816 1.708-3.816 3.816 0 1.054 0.427 2.008 1.118 2.698l25.501 25.501 25.425-25.501c0.683-0.687 1.105-1.634 1.105-2.679 0-1.064-0.438-2.027-1.143-2.717l-0.001-0.001z"></path>
</symbol>
<symbol id="icon-back_nav_caret" viewBox="0 0 16 32">
<title>back_nav_caret</title>
<path d="M15.418 0.428c-0.296-0.249-0.681-0.401-1.101-0.401-0.499 0-0.948 0.213-1.261 0.554l-0.001 0.001-12.625 14.184c-0.265 0.3-0.426 0.696-0.426 1.131s0.162 0.831 0.428 1.132l-0.002-0.002 12.608 14.39c0.315 0.357 0.774 0.582 1.285 0.582h0c0.42-0.004 0.803-0.159 1.099-0.413l-0.002 0.002c0.389-0.317 0.636-0.795 0.636-1.332 0-0.436-0.163-0.834-0.432-1.137l0.002 0.002-11.632-13.208 11.615-13.071c0.256-0.297 0.411-0.687 0.411-1.113 0-0.52-0.232-0.986-0.597-1.3l-0.002-0.002z"></path>
</symbol>
<symbol id="icon-capacity" viewBox="0 0 51 32">
<title>capacity</title>
<path d="M50.343 27.314v0c-1.943-0.61-3.629-1.523-5.096-2.698l0.030 0.024v-0.45c0.481-0.631 0.855-1.374 1.078-2.179l0.011-0.046c0.38-0.395 0.614-0.933 0.614-1.525 0-0.396-0.105-0.768-0.288-1.089l0.006 0.011v-1.704c0.012-0.113 0.019-0.244 0.019-0.376 0-2.052-1.664-3.716-3.716-3.716-0.14 0-0.278 0.008-0.415 0.023l0.017-0.002c-0.013-0-0.029-0-0.044-0-0.372 0-0.731 0.052-1.072 0.149l0.028-0.007s0 0 0 0c-1.824-0.618-3.399-1.529-4.753-2.691l0.019 0.016v-0.521c0.478-0.625 0.851-1.359 1.078-2.155l0.011-0.046c0.346-0.409 0.556-0.942 0.556-1.524 0-0.385-0.092-0.748-0.255-1.069l0.006 0.013v-1.728c0.017-0.13 0.026-0.281 0.026-0.434 0-1.987-1.611-3.598-3.598-3.598-0.084 0-0.168 0.003-0.25 0.009l0.011-0.001c-0.056-0.003-0.12-0.005-0.186-0.005-2.013 0-3.645 1.632-3.645 3.645 0 0.135 0.007 0.268 0.022 0.4l-0.001-0.016v1.728c-0.18 0.326-0.285 0.714-0.285 1.127 0 0.55 0.188 1.056 0.502 1.458l-0.004-0.005c0.215 0.839 0.565 1.574 1.031 2.221l-0.013-0.019v0.426c-1.362 0.912-2.925 1.71-4.58 2.317l-0.154 0.049-0.521 0.237s0 0 0 0c-0.156-0.018-0.337-0.029-0.521-0.029s-0.364 0.010-0.542 0.031l0.022-0.002c-0.439 0.004-0.863 0.064-1.266 0.174l0.035-0.008s0 0 0 0c-1.824-0.618-3.399-1.529-4.753-2.691l0.019 0.016v-0.521c0.462-0.624 0.814-1.361 1.009-2.159l0.009-0.042c0.346-0.409 0.556-0.942 0.556-1.524 0-0.385-0.092-0.748-0.255-1.069l0.006 0.013v-1.728c0.016-0.128 0.026-0.277 0.026-0.428 0-1.987-1.611-3.598-3.598-3.598-0.042 0-0.084 0.001-0.126 0.002l0.006-0c-0.056-0.003-0.12-0.005-0.186-0.005-2.013 0-3.645 1.632-3.645 3.645 0 0.135 0.007 0.268 0.022 0.4l-0.001-0.016v1.728c-0.157 0.308-0.248 0.671-0.248 1.056 0 0.582 0.21 1.115 0.559 1.528l-0.003-0.003c0.215 0.839 0.565 1.574 1.031 2.221l-0.013-0.019v0.426c-1.276 0.897-2.734 1.692-4.28 2.315l-0.146 0.052-0.781 0.331c-0.145-0.012-0.314-0.018-0.485-0.018s-0.34 0.007-0.507 0.020l0.022-0.001c-0.082-0.006-0.177-0.010-0.274-0.010-2.078 0-3.763 1.685-3.763 3.763 0 0.112 0.005 0.223 0.014 0.332l-0.001-0.014v1.704c-0.176 0.311-0.28 0.683-0.28 1.080 0 0.557 0.204 1.066 0.542 1.456l-0.002-0.003c0.234 0.851 0.608 1.593 1.1 2.241l-0.012-0.016v0.426c-1.429 1.157-3.106 2.077-4.932 2.668l-0.11 0.031c-0.464 0.213-0.781 0.674-0.781 1.209 0 0.008 0 0.016 0 0.023l-0-0.001v2.225c-0 0.007-0 0.016-0 0.025 0 0.702 0.556 1.275 1.252 1.301l0.002 0h14.391c0.698-0.026 1.255-0.599 1.255-1.301 0-0.009-0-0.017-0-0.026l0 0.001v-2.13c0-0.007 0-0.014 0-0.022 0-0.535-0.317-0.996-0.773-1.205l-0.008-0.003c-1.949-0.642-3.634-1.594-5.089-2.812l0.024 0.019v-0.426c0.486-0.63 0.861-1.373 1.079-2.181l0.010-0.044c0.38-0.395 0.614-0.933 0.614-1.525 0-0.396-0.105-0.768-0.288-1.089l0.006 0.011v-1.704c0.004-0.065 0.006-0.141 0.006-0.218 0-1.193-0.522-2.264-1.351-2.997l-0.004-0.004c3.172-1.42 4.734-2.201 4.947-3.124 0.006-0.028 0.009-0.061 0.009-0.095s-0.003-0.066-0.009-0.098l0 0.003v-0.852c-0.006-0.171-0.067-0.327-0.167-0.451l0.001 0.001c-0.436-0.575-0.764-1.257-0.939-1.999l-0.007-0.037c-0.032-0.155-0.117-0.286-0.235-0.378l-0.001-0.001c-0.113-0.146-0.181-0.331-0.181-0.533s0.068-0.387 0.182-0.535l-0.002 0.002c0.021-0.060 0.034-0.129 0.034-0.201s-0.012-0.141-0.035-0.205l0.001 0.004v-1.917c0-1.728 0.805-2.604 2.367-2.604s2.367 0.852 2.367 2.604v1.917c0.003 0.149 0.047 0.288 0.12 0.406l-0.002-0.003c0.113 0.146 0.181 0.331 0.181 0.533s-0.068 0.387-0.182 0.535l0.002-0.002c-0.119 0.092-0.204 0.224-0.236 0.375l-0.001 0.004c-0.159 0.782-0.49 1.469-0.954 2.045l0.007-0.009c-0.099 0.122-0.16 0.278-0.166 0.448l-0 0.001v0.852s0 0 0 0.189c0.166 0.615 0.899 1.467 4.734 3.219-0.763 0.737-1.236 1.769-1.236 2.912 0 0.075 0.002 0.149 0.006 0.223l-0-0.010v1.704c-0.174 0.31-0.277 0.68-0.277 1.075 0 0.593 0.232 1.131 0.609 1.53l-0.001-0.001c0.228 0.852 0.603 1.595 1.1 2.24l-0.011-0.015v0.426c-1.457 1.182-3.178 2.106-5.054 2.671l-0.106 0.027c-0.464 0.213-0.781 0.674-0.781 1.209 0 0.008 0 0.016 0 0.023l-0-0.001v2.225c-0 0.007-0 0.016-0 0.025 0 0.702 0.556 1.275 1.252 1.301l0.002 0h14.391c0.698-0.026 1.255-0.599 1.255-1.301 0-0.009-0-0.017-0-0.026l0 0.001v-2.13c0-0.007 0-0.014 0-0.022 0-0.535-0.317-0.996-0.773-1.205l-0.008-0.003c-1.945-0.613-3.631-1.534-5.093-2.721l0.028 0.022v-0.426c0.481-0.631 0.855-1.374 1.078-2.179l0.011-0.046c0.377-0.398 0.608-0.936 0.608-1.529 0-0.394-0.103-0.765-0.283-1.086l0.006 0.011v-1.799c0.006-0.079 0.009-0.171 0.009-0.264 0-1.151-0.495-2.187-1.284-2.905l-0.003-0.003c3.124-1.42 4.734-2.367 4.899-3.172 0.006-0.028 0.009-0.061 0.009-0.095s-0.003-0.066-0.009-0.098l0.001 0.003v-0.852c-0.005-0.171-0.067-0.327-0.167-0.451l0.001 0.001c-0.445-0.572-0.775-1.256-0.94-2.002l-0.006-0.034c-0.032-0.155-0.117-0.286-0.235-0.378l-0.001-0.001c-0.113-0.146-0.181-0.331-0.181-0.533s0.068-0.387 0.182-0.535l-0.002 0.002c0.021-0.060 0.034-0.129 0.034-0.201s-0.012-0.141-0.035-0.205l0.001 0.004v-1.917c0-1.728 0.805-2.604 2.367-2.604s2.367 0.852 2.367 2.604v1.917c0.003 0.149 0.047 0.288 0.12 0.406l-0.002-0.003c0.113 0.146 0.181 0.331 0.181 0.533s-0.068 0.387-0.182 0.535l0.002-0.002c-0.119 0.092-0.204 0.224-0.236 0.375l-0.001 0.004c-0.159 0.782-0.49 1.469-0.954 2.045l0.007-0.009c-0.099 0.122-0.16 0.278-0.166 0.448l-0 0.001v0.852c-0.006 0.028-0.009 0.061-0.009 0.095s0.003 0.066 0.009 0.098l-0.001-0.003c0.166 0.615 0.899 1.444 4.544 3.172-0.818 0.723-1.332 1.776-1.332 2.948 0 0.079 0.002 0.157 0.007 0.234l-0.001-0.011v1.704c-0.178 0.31-0.282 0.682-0.282 1.079 0 0.592 0.234 1.13 0.614 1.526l-0.001-0.001c0.228 0.852 0.603 1.595 1.1 2.24l-0.011-0.015v0.426c-1.439 1.151-3.123 2.070-4.953 2.667l-0.112 0.032c-0.464 0.213-0.781 0.674-0.781 1.209 0 0.008 0 0.016 0 0.023l-0-0.001v2.225c-0 0.007-0 0.016-0 0.025 0 0.702 0.556 1.275 1.252 1.301l0.002 0h14.391c0.688-0.039 1.231-0.606 1.231-1.3 0-0.009-0-0.018-0-0.027l0 0.001v-2.13c0.003-0.034 0.005-0.074 0.005-0.115 0-0.537-0.319-0.999-0.778-1.207l-0.008-0.003zM11.077 21.018c-0.107 0.074-0.195 0.169-0.258 0.28l-0.002 0.004c-0.169 0.794-0.517 1.489-1 2.067l0.006-0.007c-0.117 0.119-0.189 0.283-0.189 0.464 0 0.003 0 0.007 0 0.010v-0 0.852s0 0.142 0 0.189c0.213 0.686 1.041 1.586 5.822 3.621v1.988h-14.036v-1.965c4.497-1.846 5.68-2.769 5.822-3.55 0.006-0.028 0.010-0.061 0.010-0.095s-0.004-0.066-0.011-0.098l0.001 0.003v-0.852c0.002-0.018 0.003-0.039 0.003-0.060 0-0.157-0.055-0.301-0.146-0.415l0.001 0.001c-0.499-0.594-0.857-1.323-1.013-2.124l-0.005-0.030c-0.053-0.152-0.143-0.28-0.259-0.378l-0.001-0.001c-0.117-0.136-0.189-0.314-0.189-0.509s0.071-0.373 0.189-0.51l-0.001 0.001c0.086-0.118 0.139-0.266 0.142-0.425v-1.823c-0.012-0.089-0.019-0.193-0.019-0.298 0-1.307 1.060-2.367 2.367-2.367 0.090 0 0.179 0.005 0.266 0.015l-0.011-0.001c0.077-0.009 0.165-0.014 0.255-0.014 1.307 0 2.367 1.060 2.367 2.367 0 0.105-0.007 0.208-0.020 0.31l0.001-0.012v1.917c0.003 0.16 0.056 0.308 0.144 0.428l-0.002-0.002c0.066 0.11 0.105 0.243 0.105 0.385 0 0.264-0.135 0.496-0.339 0.631l-0.003 0.002zM28.284 21.018c-0.118 0.099-0.207 0.227-0.259 0.373l-0.002 0.006c-0.169 0.794-0.517 1.489-1 2.067l0.006-0.007c-0.117 0.119-0.189 0.283-0.189 0.464 0 0.003 0 0.007 0 0.010v-0 0.852s0 0.142 0 0.189c0.189 0.686 1.041 1.586 5.823 3.621v1.988h-14.035v-1.965c4.876-2.059 5.728-2.959 5.917-3.645 0 0 0-0.118 0-0.189v-0.852c0-0.003 0-0.006 0-0.009 0-0.181-0.072-0.344-0.19-0.464l0 0c-0.516-0.591-0.89-1.319-1.060-2.123l-0.005-0.031c-0.053-0.152-0.143-0.28-0.259-0.378l-0.001-0.001c-0.157-0.143-0.255-0.349-0.255-0.577 0-0.165 0.051-0.317 0.138-0.443l-0.002 0.003c0.086-0.118 0.139-0.266 0.142-0.425v-1.823c-0.012-0.089-0.019-0.193-0.019-0.298 0-1.307 1.060-2.367 2.367-2.367 0.090 0 0.179 0.005 0.266 0.015l-0.011-0.001c0.077-0.009 0.166-0.014 0.256-0.014 1.307 0 2.367 1.060 2.367 2.367 0 0.105-0.007 0.208-0.020 0.31l0.001-0.012v1.917c0.003 0.16 0.056 0.308 0.144 0.428l-0.002-0.002c0.117 0.136 0.189 0.314 0.189 0.509s-0.071 0.373-0.189 0.51l0.001-0.001zM49.704 30.485h-14.059v-1.965c4.592-1.941 5.68-2.864 5.917-3.645 0 0 0-0.118 0-0.189v-0.852c0-0.003 0-0.006 0-0.009 0-0.181-0.072-0.344-0.19-0.464l0 0c-0.529-0.561-0.924-1.255-1.129-2.026l-0.007-0.033c-0.032-0.155-0.117-0.286-0.235-0.378l-0.001-0.001c-0.161-0.14-0.262-0.345-0.262-0.573 0-0.167 0.054-0.321 0.146-0.447l-0.002 0.002c0.086-0.118 0.139-0.266 0.142-0.425v-1.823c-0.012-0.089-0.019-0.191-0.019-0.295 0-1.307 1.060-2.367 2.367-2.367 0.082 0 0.162 0.004 0.242 0.012l-0.010-0.001c0.077-0.009 0.166-0.014 0.255-0.014 1.307 0 2.367 1.060 2.367 2.367 0 0.105-0.007 0.208-0.020 0.31l0.001-0.012v1.917c0.003 0.16 0.056 0.308 0.144 0.428l-0.002-0.002c0.085 0.123 0.136 0.276 0.136 0.441 0 0.228-0.098 0.434-0.254 0.576l-0.001 0.001c-0.107 0.074-0.195 0.169-0.258 0.28l-0.002 0.004c-0.169 0.794-0.517 1.489-1 2.067l0.006-0.007c-0.117 0.119-0.189 0.283-0.189 0.464 0 0.003 0 0.007 0 0.010v-0 0.852c-0.006 0.028-0.009 0.061-0.009 0.095s0.003 0.066 0.009 0.098l-0.001-0.003c0.189 0.686 1.041 1.586 5.822 3.621z"></path>
</symbol>
<symbol id="icon-printer" viewBox="0 0 34 32">
<title>printer</title>
<path d="M13.231 25.006h9.073c0.006 0 0.012 0 0.019 0 0.303 0 0.548-0.245 0.548-0.548 0-0.007-0-0.014-0-0.020l0 0.001c0-0.313-0.254-0.567-0.567-0.567v0h-9.073c-0.313 0-0.567 0.254-0.567 0.567v0c-0 0.006-0 0.012-0 0.019 0 0.303 0.245 0.548 0.548 0.548 0.007 0 0.014-0 0.020-0l-0.001 0z"></path>
<path d="M13.231 28.787h9.073c0.006 0 0.012 0 0.019 0 0.303 0 0.548-0.245 0.548-0.548 0-0.007-0-0.014-0-0.020l0 0.001c0-0.313-0.254-0.567-0.567-0.567v0h-9.073c-0.313 0-0.567 0.254-0.567 0.567v0c-0 0.006-0 0.012-0 0.019 0 0.303 0.245 0.548 0.548 0.548 0.007 0 0.014-0 0.020-0l-0.001 0z"></path>
<path d="M30.677 4.536h-4.65c-0.057-0.116-0.126-0.216-0.209-0.303l0.001 0.001-3.138-3.856c-0.221-0.233-0.533-0.378-0.879-0.378-0.010 0-0.020 0-0.030 0l0.001-0h-11.492c-0.706 0.010-1.275 0.58-1.285 1.284v3.252h-5.67c-1.846 0.042-3.327 1.549-3.327 3.401 0 0.014 0 0.027 0 0.041l-0-0.002v10.056c-0 0.006-0 0.012-0 0.019 0 1.876 1.51 3.4 3.381 3.421l0.002 0h5.67s0 0 0 0v9.186c-0 0.006-0 0.012-0 0.019 0 0.703 0.565 1.275 1.266 1.285h14.631c0.702-0.011 1.267-0.582 1.267-1.285 0-0.007-0-0.013-0-0.020v0.001-9.148s0 0 0 0h4.536c1.823-0.083 3.27-1.581 3.27-3.418 0-0.021-0-0.042-0.001-0.063l0 0.003v-10.056c0-0.011 0-0.025 0-0.038 0-1.859-1.491-3.37-3.343-3.402l-0.003-0zM10.131 1.285c0.009-0.080 0.071-0.143 0.15-0.151l0.001-0h11.624l3.024 3.78 0.095 0.17v5.084h-14.894zM25.025 21.51v9.186c0.001 0.006 0.001 0.013 0.001 0.020 0 0.077-0.058 0.141-0.133 0.15l-0.001 0h-14.63c-0.076-0.009-0.134-0.073-0.134-0.15 0-0.007 0-0.014 0.001-0.021l-0 0.001v-9.186s0 0 0 0h14.932s-0.038-0.019-0.038 0zM32.926 18.032c0 0.006 0 0.012 0 0.019 0 1.25-1.003 2.266-2.247 2.287l-0.002 0h-27.294c-1.247-0.021-2.249-1.037-2.249-2.287 0-0.007 0-0.014 0-0.020v0.001-10.056c-0-0.006-0-0.012-0-0.019 0-1.25 1.003-2.266 2.247-2.287l0.002-0h5.67v5.066c0 0.313 0.254 0.567 0.567 0.567v0h16.028c0.313 0 0.567-0.254 0.567-0.567v0-5.066h4.517c1.247 0.021 2.249 1.037 2.249 2.287 0 0.007-0 0.013-0 0.020v-0.001z"></path>
</symbol>
<symbol id="icon-speakers" viewBox="0 0 41 32">
<title>speakers</title>
<path d="M20.8 0.188c-0.272-0.106-0.586-0.167-0.915-0.167-0.64 0-1.226 0.232-1.677 0.617l0.004-0.003-9.788 7.059h-6.682c-0.007-0-0.015-0-0.024-0-0.949 0-1.718 0.769-1.718 1.718 0 0 0 0 0 0v0 13.247c0.012 0.913 0.756 1.649 1.67 1.649 0.025 0 0.050-0.001 0.074-0.002l-0.004 0h6.871l9.647 7.059c0.487 0.347 1.085 0.57 1.731 0.611l0.010 0c0.3-0.001 0.583-0.071 0.835-0.193l-0.011 0.005c0.667-0.45 1.106-1.195 1.129-2.044l0-0.003v-27.388c0-0.011 0-0.023 0-0.036 0-0.887-0.455-1.668-1.144-2.123l-0.010-0.006zM20.165 30.588c-0.212 0-0.635 0-1.106-0.306l-9.788-7.247c-0.111-0.088-0.253-0.141-0.408-0.141-0.006 0-0.011 0-0.017 0l0.001-0h-7.059s-0.329 0-0.329-0.235v-13.247c0.012-0.159 0.144-0.283 0.305-0.283 0.009 0 0.017 0 0.025 0.001l-0.001-0h6.871c0 0 0 0 0.001 0 0.152 0 0.291-0.053 0.4-0.142l-0.001 0.001 9.953-7.059c0.518-0.306 0.941-0.447 1.153-0.353s0.353 0.659 0.376 0.824v27.318c-0.024 0.212-0.118 0.706-0.376 0.871z"></path>
<path d="M29.388 7.576c-0.121 0.133-0.195 0.311-0.195 0.506s0.074 0.373 0.196 0.506l-0.001-0.001c1.875 1.867 3.036 4.45 3.036 7.305 0 0.038-0 0.075-0.001 0.113l0-0.006c0.002 0.066 0.002 0.145 0.002 0.223 0 2.855-1.161 5.44-3.037 7.306l-0 0c-0.125 0.127-0.202 0.302-0.202 0.494 0 0.39 0.316 0.706 0.706 0.706 0.005 0 0.010-0 0.014-0h-0.001c0.194-0.003 0.368-0.083 0.494-0.212l0-0c2.124-2.128 3.437-5.066 3.437-8.31 0-0.073-0.001-0.146-0.002-0.218l0 0.011c0-0.034 0.001-0.074 0.001-0.115 0-3.244-1.313-6.181-3.436-8.309l0 0c-0.133-0.121-0.311-0.195-0.506-0.195s-0.373 0.074-0.506 0.196l0.001-0.001z"></path>
<path d="M35.765 3.341c-0.125-0.131-0.3-0.212-0.494-0.212s-0.37 0.081-0.494 0.212l-0 0c-0.125 0.127-0.202 0.302-0.202 0.494s0.077 0.367 0.202 0.494l-0-0c3.186 2.684 5.202 6.669 5.224 11.126v0.004c-0.023 4.436-2.020 8.401-5.156 11.065l-0.021 0.017c-0.125 0.127-0.202 0.302-0.202 0.494s0.077 0.367 0.202 0.494l-0-0c0.123 0.154 0.308 0.253 0.517 0.259l0.001 0c0.181-0.007 0.345-0.077 0.471-0.189l-0.001 0.001c3.46-2.928 5.642-7.274 5.642-12.129s-2.182-9.201-5.619-12.11l-0.023-0.019z"></path>
</symbol>
<symbol id="icon-videoconferencing" viewBox="0 0 57 32">
<title>videoconferencing</title>
<path d="M55.559 3.366c-0.304-0.182-0.67-0.289-1.062-0.289s-0.758 0.107-1.072 0.294l0.010-0.005-10.4 6.4v-4.883c-0.031-2.703-2.23-4.883-4.938-4.883-0.010 0-0.020 0-0.029 0h-33.102c-0.008-0-0.018-0-0.028-0-2.708 0-4.907 2.179-4.938 4.88l-0 0.003v22.234c0.031 2.703 2.23 4.883 4.938 4.883 0.010 0 0.020-0 0.029-0h33.102c0.008 0 0.018 0 0.028 0 2.708 0 4.907-2.18 4.938-4.88l0-0.003v-4.883l10.372 6.483c0.297 0.156 0.648 0.248 1.021 0.248h0c0.429-0.007 0.828-0.129 1.169-0.337l-0.010 0.006c0.748-0.498 1.236-1.336 1.241-2.289v-20.69c-0.012-0.958-0.51-1.797-1.258-2.283l-0.011-0.007zM41.379 12.303v14.814c-0.015 1.786-1.467 3.228-3.255 3.228-0.019 0-0.039-0-0.058-0l0.003 0h-33.103c-0.016 0-0.036 0-0.055 0-1.788 0-3.24-1.442-3.255-3.227v-22.236c0.015-1.786 1.467-3.228 3.255-3.228 0.019 0 0.039 0 0.058 0l-0.003-0h33.103c0.016-0 0.036-0 0.055-0 1.788 0 3.24 1.442 3.255 3.227v0.001zM55.172 26.345c0 0.012 0.001 0.025 0.001 0.039 0 0.355-0.186 0.666-0.466 0.842l-0.004 0.002c-0.068 0.037-0.149 0.059-0.234 0.059s-0.167-0.022-0.237-0.060l0.003 0.001-10.703-6.621c-0.3-0.181-0.497-0.506-0.497-0.876 0-0.012 0-0.024 0.001-0.036l-0 0.002v-7.393c-0-0.004-0-0.009-0-0.015 0-0.397 0.221-0.743 0.546-0.921l0.005-0.003 10.648-6.621c0.067-0.040 0.148-0.063 0.234-0.063s0.167 0.023 0.237 0.064l-0.002-0.001c0.284 0.184 0.469 0.5 0.469 0.859 0 0.008-0 0.017-0 0.025l0-0.001z"></path>
</symbol>
<symbol id="icon-phone" viewBox="0 0 28 32">
<title>phone</title>
<path d="M27.547 26.718l-6.169-7.865c-0.246-0.3-0.616-0.49-1.031-0.49-0.285 0-0.549 0.090-0.766 0.242l0.004-0.003-2.352 1.773c-0.829 0.27-3.855-2.564-5.783-5.783-1.041-1.928-0.925-2.545-0.867-2.583l2.39-1.812c0.266-0.205 0.454-0.501 0.519-0.839l0.001-0.009c0.006-0.045 0.009-0.097 0.009-0.15 0-0.302-0.105-0.579-0.281-0.797l0.002 0.002-6.072-7.904c-0.201-0.268-0.499-0.452-0.841-0.5l-0.007-0.001c-0.056-0.009-0.121-0.015-0.187-0.015-0.288 0-0.552 0.1-0.76 0.267l0.002-0.002-0.79 0.578c-2.286 1.214-3.958 3.328-4.557 5.857l-0.012 0.061c-0.501 3.528 1.696 8.386 6.728 14.843s9.272 9.986 12.916 10.371h0.733c2.602-0.187 4.91-1.316 6.611-3.044l0.001-0.001 0.424-0.366c0.283-0.235 0.461-0.587 0.461-0.98 0-0.328-0.124-0.627-0.327-0.852l0.001 0.001zM26.602 27.586l-0.424 0.366c-1.831 1.542-3.72 3.123-6.323 2.853-3.277-0.347-7.229-3.586-12.145-9.908s-6.959-10.795-6.496-13.976c0.569-2.244 2.036-4.070 3.986-5.107l0.043-0.021 0.81-0.617h0.193l6.13 7.904v0.154l-2.41 1.812c-0.771 0.636-0.578 1.928 0.578 4.067 1.388 2.487 5.031 7.055 7.094 6.323l0.27-0.135 2.39-1.793c0.021-0.024 0.052-0.039 0.087-0.039s0.065 0.015 0.087 0.039l0 0 6.169 7.865c0.051 0.009 0.088 0.053 0.088 0.106 0 0.059-0.048 0.108-0.108 0.108-0.007 0-0.013-0.001-0.020-0.002l0.001 0z"></path>
</symbol>
<symbol id="icon-flyout_caret" viewBox="0 0 18 32">
<title>flyout_caret</title>
<path d="M0.567 31.393c0.367 0.37 0.875 0.599 1.437 0.599s1.070-0.229 1.437-0.599l0-0 14.269-13.804c0.323-0.357 0.521-0.833 0.521-1.355 0-0.086-0.005-0.171-0.016-0.254l0.001 0.010c0.003-0.044 0.005-0.096 0.005-0.148 0-0.559-0.226-1.065-0.592-1.431v0l-14.188-13.844c-0.365-0.358-0.865-0.579-1.417-0.579-0.572 0-1.088 0.237-1.457 0.619l-0.001 0.001c-0.37 0.367-0.599 0.875-0.599 1.437s0.229 1.070 0.599 1.437l0 0 12.974 12.509-12.934 12.529c-0.382 0.369-0.619 0.885-0.619 1.457 0 0.552 0.221 1.052 0.579 1.417l-0-0z"></path>
</symbol>
<symbol id="icon-close" viewBox="0 0 32 32">
<title>close</title>
<path d="M18.569 16l12.884-12.884c0.333-0.33 0.539-0.788 0.539-1.294s-0.206-0.964-0.539-1.294l-0-0c-0.329-0.328-0.783-0.53-1.285-0.53s-0.955 0.202-1.285 0.53l-12.884 12.884-12.884-12.884c-0.331-0.331-0.789-0.536-1.294-0.536-1.011 0-1.83 0.819-1.83 1.83 0 0.505 0.205 0.963 0.536 1.294l12.884 12.884-12.884 12.884c-0.327 0.329-0.529 0.784-0.529 1.285 0 1.007 0.816 1.823 1.823 1.823 0.506 0 0.963-0.206 1.294-0.538l12.884-12.884 12.884 12.884c0.329 0.328 0.783 0.53 1.285 0.53s0.955-0.202 1.285-0.53l-0 0c0.328-0.329 0.53-0.783 0.53-1.285s-0.202-0.955-0.53-1.285l0 0z"></path>
</symbol>
</defs>
</svg>
