<svg xmlns="http://www.w3.org/2000/svg" xmlns:xlink="http://www.w3.org/1999/xlink" viewBox="0 0 20.6 11.6"><defs><style>.cls-1,.cls-3{fill:none;}.cls-2{clip-path:url(#clip-path);}.cls-3{stroke:#2f2b2c;stroke-linecap:round;stroke-linejoin:round;stroke-width:0.6px;}</style><clipPath id="clip-path" transform="translate(-0.7 -0.7)"><rect class="cls-1" width="22" height="13"/></clipPath></defs><title>Asset 4</title><g id="Layer_2" data-name="Layer 2"><g id="Layer_1-2" data-name="Layer 1"><g class="cls-2"><path class="cls-3" d="M20.21,2.16l-3.87,2.4a.69.69,0,0,0-.34.6V7.84a.69.69,0,0,0,.34.6l3.86,2.4a.58.58,0,0,0,.8-.59V2.75A.58.58,0,0,0,20.21,2.16Z" transform="translate(-0.7 -0.7)"/><path class="cls-3" d="M14.5,12H2.5A1.49,1.49,0,0,1,1,10.53V2.47A1.49,1.49,0,0,1,2.5,1h12A1.49,1.49,0,0,1,16,2.47v8.06A1.49,1.49,0,0,1,14.5,12Z" transform="translate(-0.7 -0.7)"/></g></g></g></svg>