<!-- Generated by IcoMoon.io -->
<svg version="1.1" xmlns="http://www.w3.org/2000/svg" width="28" height="32" viewBox="0 0 28 32">
<title>phone</title>
<path d="M27.547 26.718l-6.169-7.865c-0.246-0.3-0.616-0.49-1.031-0.49-0.285 0-0.549 0.090-0.766 0.242l0.004-0.003-2.352 1.773c-0.829 0.27-3.855-2.564-5.783-5.783-1.041-1.928-0.925-2.545-0.867-2.583l2.39-1.812c0.266-0.205 0.454-0.501 0.519-0.839l0.001-0.009c0.006-0.045 0.009-0.097 0.009-0.15 0-0.302-0.105-0.579-0.281-0.797l0.002 0.002-6.072-7.904c-0.201-0.268-0.499-0.452-0.841-0.5l-0.007-0.001c-0.056-0.009-0.121-0.015-0.187-0.015-0.288 0-0.552 0.1-0.76 0.267l0.002-0.002-0.79 0.578c-2.286 1.214-3.958 3.328-4.557 5.857l-0.012 0.061c-0.501 3.528 1.696 8.386 6.728 14.843s9.272 9.986 12.916 10.371h0.733c2.602-0.187 4.91-1.316 6.611-3.044l0.001-0.001 0.424-0.366c0.283-0.235 0.461-0.587 0.461-0.98 0-0.328-0.124-0.627-0.327-0.852l0.001 0.001zM26.602 27.586l-0.424 0.366c-1.831 1.542-3.72 3.123-6.323 2.853-3.277-0.347-7.229-3.586-12.145-9.908s-6.959-10.795-6.496-13.976c0.569-2.244 2.036-4.070 3.986-5.107l0.043-0.021 0.81-0.617h0.193l6.13 7.904v0.154l-2.41 1.812c-0.771 0.636-0.578 1.928 0.578 4.067 1.388 2.487 5.031 7.055 7.094 6.323l0.27-0.135 2.39-1.793c0.021-0.024 0.052-0.039 0.087-0.039s0.065 0.015 0.087 0.039l0 0 6.169 7.865c0.051 0.009 0.088 0.053 0.088 0.106 0 0.059-0.048 0.108-0.108 0.108-0.007 0-0.013-0.001-0.020-0.002l0.001 0z"></path>
</svg>
