<svg xmlns="http://www.w3.org/2000/svg" xmlns:xlink="http://www.w3.org/1999/xlink" viewBox="0 0 18.02 16.94"><defs><style>.cls-1,.cls-3{fill:none;}.cls-2{clip-path:url(#clip-path);}.cls-3{stroke:#2f2b2c;stroke-linecap:round;stroke-linejoin:round;stroke-width:0.6px;}</style><clipPath id="clip-path" transform="translate(0 -0.06)"><rect class="cls-1" width="19" height="17"/></clipPath></defs><title>Asset 5</title><g id="Layer_2" data-name="Layer 2"><g id="Layer_1-2" data-name="Layer 1"><g class="cls-2"><line class="cls-3" x1="7" y1="12.94" x2="11.8" y2="12.94"/><line class="cls-3" x1="7" y1="14.94" x2="11.8" y2="14.94"/><path class="cls-3" d="M5.06,2.77H1.79A1.5,1.5,0,0,0,.3,4.28V9.61a1.5,1.5,0,0,0,1.49,1.51H16.23a1.5,1.5,0,0,0,1.49-1.51V4.28a1.5,1.5,0,0,0-1.49-1.51H13.54" transform="translate(0 -0.06)"/><path class="cls-3" d="M5.06,11.44v4.87a.38.38,0,0,0,.37.39h7.74a.37.37,0,0,0,.37-.39V11.44" transform="translate(0 -0.06)"/><path class="cls-3" d="M13.54,5.74v-3a.39.39,0,0,0-.11-.27l-1.61-2a.34.34,0,0,0-.27-.12H5.44a.39.39,0,0,0-.38.39v5Z" transform="translate(0 -0.06)"/></g></g></g></svg>