<!-- Generated by IcoMoon.io -->
<svg version="1.1" xmlns="http://www.w3.org/2000/svg" width="34" height="32" viewBox="0 0 34 32">
<title>printer</title>
<path d="M13.231 25.006h9.073c0.006 0 0.012 0 0.019 0 0.303 0 0.548-0.245 0.548-0.548 0-0.007-0-0.014-0-0.020l0 0.001c0-0.313-0.254-0.567-0.567-0.567v0h-9.073c-0.313 0-0.567 0.254-0.567 0.567v0c-0 0.006-0 0.012-0 0.019 0 0.303 0.245 0.548 0.548 0.548 0.007 0 0.014-0 0.020-0l-0.001 0z"></path>
<path d="M13.231 28.787h9.073c0.006 0 0.012 0 0.019 0 0.303 0 0.548-0.245 0.548-0.548 0-0.007-0-0.014-0-0.020l0 0.001c0-0.313-0.254-0.567-0.567-0.567v0h-9.073c-0.313 0-0.567 0.254-0.567 0.567v0c-0 0.006-0 0.012-0 0.019 0 0.303 0.245 0.548 0.548 0.548 0.007 0 0.014-0 0.020-0l-0.001 0z"></path>
<path d="M30.677 4.536h-4.65c-0.057-0.116-0.126-0.216-0.209-0.303l0.001 0.001-3.138-3.856c-0.221-0.233-0.533-0.378-0.879-0.378-0.010 0-0.020 0-0.030 0l0.001-0h-11.492c-0.706 0.010-1.275 0.58-1.285 1.284v3.252h-5.67c-1.846 0.042-3.327 1.549-3.327 3.401 0 0.014 0 0.027 0 0.041l-0-0.002v10.056c-0 0.006-0 0.012-0 0.019 0 1.876 1.51 3.4 3.381 3.421l0.002 0h5.67s0 0 0 0v9.186c-0 0.006-0 0.012-0 0.019 0 0.703 0.565 1.275 1.266 1.285h14.631c0.702-0.011 1.267-0.582 1.267-1.285 0-0.007-0-0.013-0-0.020v0.001-9.148s0 0 0 0h4.536c1.823-0.083 3.27-1.581 3.27-3.418 0-0.021-0-0.042-0.001-0.063l0 0.003v-10.056c0-0.011 0-0.025 0-0.038 0-1.859-1.491-3.37-3.343-3.402l-0.003-0zM10.131 1.285c0.009-0.080 0.071-0.143 0.15-0.151l0.001-0h11.624l3.024 3.78 0.095 0.17v5.084h-14.894zM25.025 21.51v9.186c0.001 0.006 0.001 0.013 0.001 0.020 0 0.077-0.058 0.141-0.133 0.15l-0.001 0h-14.63c-0.076-0.009-0.134-0.073-0.134-0.15 0-0.007 0-0.014 0.001-0.021l-0 0.001v-9.186s0 0 0 0h14.932s-0.038-0.019-0.038 0zM32.926 18.032c0 0.006 0 0.012 0 0.019 0 1.25-1.003 2.266-2.247 2.287l-0.002 0h-27.294c-1.247-0.021-2.249-1.037-2.249-2.287 0-0.007 0-0.014 0-0.020v0.001-10.056c-0-0.006-0-0.012-0-0.019 0-1.25 1.003-2.266 2.247-2.287l0.002-0h5.67v5.066c0 0.313 0.254 0.567 0.567 0.567v0h16.028c0.313 0 0.567-0.254 0.567-0.567v0-5.066h4.517c1.247 0.021 2.249 1.037 2.249 2.287 0 0.007-0 0.013-0 0.020v-0.001z"></path>
</svg>
