<!-- Generated by IcoMoon.io -->
<svg version="1.1" xmlns="http://www.w3.org/2000/svg" width="57" height="32" viewBox="0 0 57 32">
<title>videoconferencing</title>
<path d="M55.559 3.366c-0.304-0.182-0.67-0.289-1.062-0.289s-0.758 0.107-1.072 0.294l0.010-0.005-10.4 6.4v-4.883c-0.031-2.703-2.23-4.883-4.938-4.883-0.010 0-0.020 0-0.029 0h-33.102c-0.008-0-0.018-0-0.028-0-2.708 0-4.907 2.179-4.938 4.88l-0 0.003v22.234c0.031 2.703 2.23 4.883 4.938 4.883 0.010 0 0.020-0 0.029-0h33.102c0.008 0 0.018 0 0.028 0 2.708 0 4.907-2.18 4.938-4.88l0-0.003v-4.883l10.372 6.483c0.297 0.156 0.648 0.248 1.021 0.248h0c0.429-0.007 0.828-0.129 1.169-0.337l-0.010 0.006c0.748-0.498 1.236-1.336 1.241-2.289v-20.69c-0.012-0.958-0.51-1.797-1.258-2.283l-0.011-0.007zM41.379 12.303v14.814c-0.015 1.786-1.467 3.228-3.255 3.228-0.019 0-0.039-0-0.058-0l0.003 0h-33.103c-0.016 0-0.036 0-0.055 0-1.788 0-3.24-1.442-3.255-3.227v-22.236c0.015-1.786 1.467-3.228 3.255-3.228 0.019 0 0.039 0 0.058 0l-0.003-0h33.103c0.016-0 0.036-0 0.055-0 1.788 0 3.24 1.442 3.255 3.227v0.001zM55.172 26.345c0 0.012 0.001 0.025 0.001 0.039 0 0.355-0.186 0.666-0.466 0.842l-0.004 0.002c-0.068 0.037-0.149 0.059-0.234 0.059s-0.167-0.022-0.237-0.060l0.003 0.001-10.703-6.621c-0.3-0.181-0.497-0.506-0.497-0.876 0-0.012 0-0.024 0.001-0.036l-0 0.002v-7.393c-0-0.004-0-0.009-0-0.015 0-0.397 0.221-0.743 0.546-0.921l0.005-0.003 10.648-6.621c0.067-0.040 0.148-0.063 0.234-0.063s0.167 0.023 0.237 0.064l-0.002-0.001c0.284 0.184 0.469 0.5 0.469 0.859 0 0.008-0 0.017-0 0.025l0-0.001z"></path>
</svg>
