<!-- Generated by IcoMoon.io -->
<svg version="1.1" xmlns="http://www.w3.org/2000/svg" width="35" height="32" viewBox="0 0 35 32">
<title>whiteboard</title>
<path d="M34.246 2.807h-10.985v-2.246c0-0.31-0.251-0.561-0.561-0.561v0c-0.006-0-0.012-0-0.019-0-0.3 0-0.543 0.243-0.543 0.543 0 0.007 0 0.013 0 0.020l-0-0.001v2.246h-9.469v-2.246c0-0.006 0-0.012 0-0.019 0-0.3-0.243-0.543-0.543-0.543-0.007 0-0.013 0-0.020 0l0.001-0c-0.31 0-0.561 0.251-0.561 0.561v0 2.246h-10.985c-0.006-0-0.012-0-0.019-0-0.3 0-0.543 0.243-0.543 0.543 0 0.007 0 0.013 0 0.020l-0-0.001v22.456c-0 0.006-0 0.012-0 0.019 0 0.3 0.243 0.543 0.543 0.543 0.007 0 0.013-0 0.020-0l-0.001 0h16.281v4.491h-6.924c-0.31 0-0.561 0.251-0.561 0.561s0.251 0.561 0.561 0.561v0h14.971c0.31 0 0.561-0.251 0.561-0.561s-0.251-0.561-0.561-0.561v0h-6.924v-4.491h16.281c0.006 0 0.012 0 0.019 0 0.3 0 0.543-0.243 0.543-0.543 0-0.007-0-0.013-0-0.020l0 0.001v-22.456c0-0.006 0-0.012 0-0.019 0-0.3-0.243-0.543-0.543-0.543-0.007 0-0.013 0-0.020 0l0.001-0zM33.684 25.263h-32.561v-21.333h32.561z"></path>
</svg>
