<!-- Generated by IcoMoon.io -->
<svg version="1.1" xmlns="http://www.w3.org/2000/svg" width="16" height="32" viewBox="0 0 16 32">
<title>back_nav_caret</title>
<path d="M15.418 0.428c-0.296-0.249-0.681-0.401-1.101-0.401-0.499 0-0.948 0.213-1.261 0.554l-0.001 0.001-12.625 14.184c-0.265 0.3-0.426 0.696-0.426 1.131s0.162 0.831 0.428 1.132l-0.002-0.002 12.608 14.39c0.315 0.357 0.774 0.582 1.285 0.582h0c0.42-0.004 0.803-0.159 1.099-0.413l-0.002 0.002c0.389-0.317 0.636-0.795 0.636-1.332 0-0.436-0.163-0.834-0.432-1.137l0.002 0.002-11.632-13.208 11.615-13.071c0.256-0.297 0.411-0.687 0.411-1.113 0-0.52-0.232-0.986-0.597-1.3l-0.002-0.002z"></path>
</svg>
