<!-- Generated by IcoMoon.io -->
<svg version="1.1" xmlns="http://www.w3.org/2000/svg" width="32" height="32" viewBox="0 0 32 32">
<title>close</title>
<path d="M18.569 16l12.884-12.884c0.333-0.33 0.539-0.788 0.539-1.294s-0.206-0.964-0.539-1.294l-0-0c-0.329-0.328-0.783-0.53-1.285-0.53s-0.955 0.202-1.285 0.53l-12.884 12.884-12.884-12.884c-0.331-0.331-0.789-0.536-1.294-0.536-1.011 0-1.83 0.819-1.83 1.83 0 0.505 0.205 0.963 0.536 1.294l12.884 12.884-12.884 12.884c-0.327 0.329-0.529 0.784-0.529 1.285 0 1.007 0.816 1.823 1.823 1.823 0.506 0 0.963-0.206 1.294-0.538l12.884-12.884 12.884 12.884c0.329 0.328 0.783 0.53 1.285 0.53s0.955-0.202 1.285-0.53l-0 0c0.328-0.329 0.53-0.783 0.53-1.285s-0.202-0.955-0.53-1.285l0 0z"></path>
</svg>
