<!-- Generated by IcoMoon.io -->
<svg version="1.1" xmlns="http://www.w3.org/2000/svg" width="18" height="32" viewBox="0 0 18 32">
<title>flyout_caret</title>
<path d="M0.567 31.393c0.367 0.37 0.875 0.599 1.437 0.599s1.070-0.229 1.437-0.599l0-0 14.269-13.804c0.323-0.357 0.521-0.833 0.521-1.355 0-0.086-0.005-0.171-0.016-0.254l0.001 0.010c0.003-0.044 0.005-0.096 0.005-0.148 0-0.559-0.226-1.065-0.592-1.431v0l-14.188-13.844c-0.365-0.358-0.865-0.579-1.417-0.579-0.572 0-1.088 0.237-1.457 0.619l-0.001 0.001c-0.37 0.367-0.599 0.875-0.599 1.437s0.229 1.070 0.599 1.437l0 0 12.974 12.509-12.934 12.529c-0.382 0.369-0.619 0.885-0.619 1.457 0 0.552 0.221 1.052 0.579 1.417l-0-0z"></path>
</svg>
